<svg width="409" height="408" viewBox="0 0 409 408" fill="none" xmlns="http://www.w3.org/2000/svg">
<path d="M0 109C0 97.9543 8.9543 89 20 89H197.875C208.921 89 217.876 97.9543 217.876 109V299.062C217.876 359.227 169.102 408 108.938 408C48.7731 408 0 359.227 0 299.062V109Z" fill="#7120D1"/>
<path d="M189.891 209C189.891 197.954 198.846 189 209.891 189H388.766C399.812 189 408.766 197.954 408.766 209V298.5C408.766 342.5 364.292 408 303.826 408C237.301 408 191.147 408 108.495 408C108.495 408 129.926 401 161.907 369.5C187.716 344.08 189.891 298.5 189.891 298.5V209Z" fill="#A255FD"/>
<path d="M110 407.767C98.9543 407.767 90 398.812 90 387.767V210.424C90 199.378 98.9543 190.424 110 190.424H300.329C360.346 190.424 409 239.078 409 299.095C409 359.113 360.346 407.767 300.329 407.767H110Z" fill="#7120D1"/>
<path d="M210 218.339C198.954 218.339 190 209.385 190 198.339V20C190 8.95435 198.954 3.73338e-05 210 3.73338e-05H299.5C343.5 3.73338e-05 409 44.3658 409 104.683C409 171.046 409 217.088 409 299.537C409 299.537 402 278.159 370.5 246.255C345.08 220.51 299.5 218.339 299.5 218.339H210Z" fill="#A255FD"/>
</svg>
