<svg xmlns="http://www.w3.org/2000/svg" width="1200" height="630" viewBox="0 0 1200 630">
  <defs>
    <radialGradient id="glow" cx="70%" cy="10%" r="80%">
      <stop stop-color="#7120D1" stop-opacity=".65"/>
      <stop offset="1" stop-color="#0B0A0F" stop-opacity="0"/>
    </radialGradient>
    <linearGradient id="accent" x1="0" y1="0" x2="1" y2="1">
      <stop stop-color="#7120D1"/>
      <stop offset="1" stop-color="#A255FD"/>
    </linearGradient>
  </defs>
  <rect width="1200" height="630" fill="#0B0A0F"/>
  <rect width="1200" height="630" fill="url(#glow)"/>
  <circle cx="1050" cy="510" r="300" fill="#A255FD" opacity=".08"/>
  <rect x="70" y="70" width="12" height="490" rx="6" fill="url(#accent)"/>
  <!-- UD Labs logo -->
  <g transform="translate(125, 118) scale(0.086)">
    <path d="M0 109C0 97.9543 8.9543 89 20 89H197.875C208.921 89 217.876 97.9543 217.876 109V299.062C217.876 359.227 169.102 408 108.938 408C48.7731 408 0 359.227 0 299.062V109Z" fill="#7120D1"/>
    <path d="M189.892 209C189.892 197.954 198.846 189 209.892 189H388.767C399.812 189 408.767 197.954 408.767 209V298.5C408.767 342.5 364.292 408 303.827 408C237.301 408 191.147 408 108.495 408C108.495 408 129.926 401 161.908 369.5C187.716 344.08 189.892 298.5 189.892 298.5V209Z" fill="#A255FD"/>
    <path d="M110 407.767C98.9543 407.767 90 398.812 90 387.767V210.424C90 199.378 98.9543 190.424 110 190.424H300.329C360.346 190.424 409 239.078 409 299.095C409 359.113 360.346 407.767 300.329 407.767H110Z" fill="#7120D1"/>
    <path d="M210 218.339C198.954 218.339 190 209.385 190 198.339V20C190 8.95435 198.954 3.73338e-05 210 3.73338e-05H299.5C343.5 3.73338e-05 409 44.3658 409 104.683C409 171.046 409 217.088 409 299.537C409 299.537 402 278.159 370.5 246.255C345.08 220.51 299.5 218.339 299.5 218.339H210Z" fill="#A255FD"/>
    <path d="M569.486 292.572C556.741 292.572 545.125 290.071 534.638 285.07C524.313 279.907 516.085 272.244 509.954 262.08C503.985 251.916 501 239.09 501 223.602V120.268H537.3V223.844C537.3 231.427 538.51 237.88 540.93 243.204C543.511 248.528 547.222 252.561 552.062 255.304C557.063 257.885 563.033 259.176 569.97 259.176C577.069 259.176 583.038 257.885 587.878 255.304C592.879 252.561 596.671 248.528 599.252 243.204C601.833 237.88 603.124 231.427 603.124 223.844V120.268H639.424V223.602C639.424 239.09 636.197 251.916 629.744 262.08C623.452 272.244 614.982 279.907 604.334 285.07C593.847 290.071 582.231 292.572 569.486 292.572Z" fill="white"/>
    <path d="M658.146 289.668V120.268H716.952C736.634 120.268 752.848 123.817 765.594 130.916C778.5 137.853 788.019 147.695 794.149 160.44C800.441 173.024 803.588 187.867 803.588 204.968C803.588 221.908 800.441 236.751 794.149 249.496C788.019 262.08 778.5 271.921 765.594 279.02C752.848 286.119 736.634 289.668 716.952 289.668H658.146ZM694.446 258.45H714.774C727.842 258.45 738.167 256.353 745.749 252.158C753.332 247.802 758.656 241.671 761.722 233.766C764.948 225.699 766.562 216.1 766.562 204.968C766.562 193.675 764.948 184.075 761.722 176.17C758.656 168.103 753.332 161.973 745.749 157.778C738.167 153.422 727.842 151.244 714.774 151.244H694.446V258.45Z" fill="white"/>
    <path d="M861.057 289.668V120.268H897.357V261.596H970.441V289.668H861.057Z" fill="white"/>
    <path d="M1027.64 292.572C1017.48 292.572 1009.01 290.959 1002.23 287.732C995.614 284.505 990.694 280.149 987.467 274.664C984.402 269.017 982.869 262.806 982.869 256.03C982.869 248.77 984.644 242.397 988.193 236.912C991.904 231.265 997.631 226.829 1005.38 223.602C1013.12 220.214 1022.88 218.52 1034.66 218.52H1064.18C1064.18 213.035 1063.46 208.517 1062 204.968C1060.71 201.419 1058.53 198.757 1055.47 196.982C1052.4 195.207 1048.21 194.32 1042.89 194.32C1037.24 194.32 1032.48 195.449 1028.61 197.708C1024.74 199.967 1022.32 203.516 1021.35 208.356H986.499C987.306 199.644 990.129 192.061 994.969 185.608C999.97 179.155 1006.59 174.073 1014.81 170.362C1023.04 166.651 1032.48 164.796 1043.13 164.796C1054.74 164.796 1064.83 166.732 1073.38 170.604C1081.93 174.315 1088.54 179.8 1093.22 187.06C1098.06 194.32 1100.48 203.355 1100.48 214.164V289.668H1070.23L1065.88 272.002C1064.1 275.067 1062 277.891 1059.58 280.472C1057.16 282.892 1054.34 285.07 1051.11 287.006C1047.89 288.781 1044.34 290.152 1040.47 291.12C1036.59 292.088 1032.32 292.572 1027.64 292.572ZM1036.59 264.984C1040.47 264.984 1043.85 264.339 1046.76 263.048C1049.66 261.757 1052.16 259.983 1054.26 257.724C1056.36 255.465 1058.05 252.884 1059.34 249.98C1060.79 246.915 1061.84 243.607 1062.49 240.058V239.816H1039.01C1034.98 239.816 1031.59 240.381 1028.85 241.51C1026.27 242.478 1024.33 243.93 1023.04 245.866C1021.75 247.802 1021.11 250.061 1021.11 252.642C1021.11 255.385 1021.75 257.724 1023.04 259.66C1024.49 261.435 1026.35 262.806 1028.61 263.774C1031.03 264.581 1033.69 264.984 1036.59 264.984Z" fill="white"/>
    <path d="M1192.84 292.572C1186.87 292.572 1181.47 291.846 1176.63 290.394C1171.95 288.942 1167.76 286.925 1164.04 284.344C1160.5 281.601 1157.43 278.536 1154.85 275.148L1150.73 289.668H1118.55V115.428H1154.85V183.672C1158.72 178.186 1163.72 173.669 1169.85 170.12C1175.98 166.57 1183.57 164.796 1192.6 164.796C1203.73 164.796 1213.65 167.619 1222.37 173.266C1231.24 178.751 1238.26 186.334 1243.42 196.014C1248.58 205.532 1251.16 216.503 1251.16 228.926C1251.16 241.026 1248.58 251.916 1243.42 261.596C1238.26 271.276 1231.32 278.858 1222.61 284.344C1213.9 289.829 1203.97 292.572 1192.84 292.572ZM1183.89 260.87C1189.7 260.87 1194.86 259.498 1199.38 256.756C1204.06 254.013 1207.69 250.302 1210.27 245.624C1212.85 240.784 1214.14 235.218 1214.14 228.926C1214.14 222.634 1212.85 217.068 1210.27 212.228C1207.69 207.226 1204.06 203.354 1199.38 200.612C1194.86 197.869 1189.7 196.498 1183.89 196.498C1177.92 196.498 1172.6 197.95 1167.92 200.854C1163.4 203.596 1159.85 207.388 1157.27 212.228C1154.69 216.906 1153.4 222.472 1153.4 228.926C1153.4 235.056 1154.69 240.542 1157.27 245.382C1159.85 250.222 1163.4 254.013 1167.92 256.756C1172.6 259.498 1177.92 260.87 1183.89 260.87Z" fill="white"/>
    <path d="M1317.73 292.572C1306.28 292.572 1296.36 290.797 1287.97 287.248C1279.74 283.537 1273.21 278.536 1268.37 272.244C1263.69 265.952 1261.03 258.853 1260.38 250.948H1296.44C1297.08 253.691 1298.21 256.191 1299.83 258.45C1301.6 260.547 1303.94 262.241 1306.84 263.532C1309.91 264.661 1313.3 265.226 1317.01 265.226C1321.04 265.226 1324.27 264.742 1326.69 263.774C1329.27 262.645 1331.21 261.193 1332.5 259.418C1333.79 257.643 1334.43 255.788 1334.43 253.852C1334.43 250.787 1333.46 248.447 1331.53 246.834C1329.75 245.221 1327.09 243.93 1323.54 242.962C1319.99 241.833 1315.72 240.784 1310.72 239.816C1304.91 238.525 1299.1 237.073 1293.29 235.46C1287.65 233.685 1282.56 231.507 1278.05 228.926C1273.69 226.345 1270.14 223.037 1267.4 219.004C1264.82 214.809 1263.53 209.727 1263.53 203.758C1263.53 196.498 1265.54 189.964 1269.58 184.156C1273.61 178.187 1279.42 173.508 1287 170.12C1294.58 166.571 1303.78 164.796 1314.59 164.796C1329.92 164.796 1341.93 168.184 1350.65 174.96C1359.36 181.736 1364.52 190.851 1366.13 202.306H1332.25C1331.29 199.079 1329.27 196.659 1326.2 195.046C1323.14 193.271 1319.27 192.384 1314.59 192.384C1309.26 192.384 1305.23 193.271 1302.49 195.046C1299.75 196.821 1298.37 199.16 1298.37 202.064C1298.37 204 1299.26 205.775 1301.04 207.388C1302.97 208.84 1305.72 210.131 1309.26 211.26C1312.81 212.389 1317.17 213.519 1322.33 214.648C1332.17 216.745 1340.64 219.004 1347.74 221.424C1355 223.844 1360.65 227.393 1364.68 232.072C1368.72 236.589 1370.65 243.204 1370.49 251.916C1370.65 259.821 1368.55 266.839 1364.2 272.97C1360 279.101 1353.95 283.941 1346.05 287.49C1338.14 290.878 1328.71 292.572 1317.73 292.572Z" fill="white"/>
  </g>
  <text x="125" y="260" fill="#F1EEF6" font-family="Georgia, serif" font-size="72">Criação de sites</text>
  <text x="125" y="345" fill="#F1EEF6" font-family="Georgia, serif" font-size="72" font-weight="700">profissionais.</text>
  <text x="125" y="425" fill="#B9B3C6" font-family="Arial, sans-serif" font-size="30">Design sofisticado, performance e SEO.</text>
  <text x="125" y="505" font-family="Arial, sans-serif" font-size="27"><tspan fill="#A255FD" font-weight="700">✓</tspan><tspan fill="#D9D4E3" dx="8">Resposta no mesmo dia</tspan><tspan fill="#7120D1" font-weight="700" dx="22">·</tspan><tspan fill="#A255FD" font-weight="700" dx="22">✓</tspan><tspan fill="#D9D4E3" dx="8">Design exclusivo</tspan><tspan fill="#7120D1" font-weight="700" dx="22">·</tspan><tspan fill="#A255FD" font-weight="700" dx="22">✓</tspan><tspan fill="#D9D4E3" dx="8">Sem mensalidade</tspan></text>
</svg>
