<svg width="916" height="408" viewBox="409 0 916 408" fill="none" xmlns="http://www.w3.org/2000/svg">
<path d="M1279.49 277.544C1269.74 277.544 1261.26 275.99 1254.05 272.88C1246.84 269.771 1241.19 265.46 1237.09 259.948C1232.99 254.436 1230.66 248.218 1230.09 241.292H1258.5C1259.21 243.978 1260.41 246.451 1262.11 248.712C1263.8 250.832 1266.06 252.528 1268.89 253.8C1271.72 255.072 1275.11 255.708 1279.07 255.708C1282.88 255.708 1285.99 255.214 1288.39 254.224C1290.8 253.094 1292.56 251.61 1293.69 249.772C1294.97 247.935 1295.6 246.027 1295.6 244.048C1295.6 241.08 1294.75 238.819 1293.06 237.264C1291.36 235.568 1288.89 234.226 1285.64 233.236C1282.39 232.247 1278.43 231.258 1273.77 230.268C1268.68 229.279 1263.66 228.078 1258.71 226.664C1253.91 225.11 1249.6 223.202 1245.78 220.94C1241.97 218.679 1238.93 215.782 1236.67 212.248C1234.4 208.715 1233.27 204.334 1233.27 199.104C1233.27 192.744 1234.97 187.091 1238.36 182.144C1241.75 177.056 1246.7 173.028 1253.2 170.06C1259.7 167.092 1267.55 165.608 1276.73 165.608C1289.6 165.608 1299.77 168.506 1307.26 174.3C1314.75 180.095 1319.2 188.08 1320.62 198.256H1293.69C1292.85 195.006 1290.94 192.462 1287.97 190.624C1285.14 188.646 1281.33 187.656 1276.52 187.656C1271.43 187.656 1267.55 188.575 1264.86 190.412C1262.18 192.25 1260.83 194.652 1260.83 197.62C1260.83 199.599 1261.68 201.366 1263.38 202.92C1265.22 204.475 1267.76 205.818 1271.01 206.948C1274.26 207.938 1278.22 208.927 1282.88 209.916C1291.08 211.612 1298.29 213.591 1304.51 215.852C1310.72 217.972 1315.6 221.082 1319.13 225.18C1322.67 229.138 1324.43 234.932 1324.43 242.564C1324.43 249.348 1322.6 255.426 1318.92 260.796C1315.25 266.026 1310.02 270.124 1303.23 273.092C1296.59 276.06 1288.68 277.544 1279.49 277.544Z" fill="white"/>
<path d="M1164.32 277.544C1158.8 277.544 1153.86 276.838 1149.48 275.424C1145.24 274.011 1141.42 272.103 1138.03 269.7C1134.78 267.156 1132.02 264.33 1129.76 261.22L1126.58 275H1101.14V122.36H1129.76V182.992C1133.15 178.046 1137.6 173.947 1143.12 170.696C1148.77 167.304 1155.76 165.608 1164.1 165.608C1174 165.608 1182.76 168.082 1190.39 173.028C1198.17 177.834 1204.24 184.476 1208.62 192.956C1213.15 201.295 1215.41 210.906 1215.41 221.788C1215.41 232.388 1213.15 241.928 1208.62 250.408C1204.24 258.888 1198.24 265.531 1190.6 270.336C1182.97 275.142 1174.21 277.544 1164.32 277.544ZM1157.53 252.528C1163.19 252.528 1168.13 251.256 1172.37 248.712C1176.75 246.027 1180.15 242.423 1182.55 237.9C1184.95 233.236 1186.15 227.866 1186.15 221.788C1186.15 215.711 1184.95 210.34 1182.55 205.676C1180.15 200.871 1176.75 197.196 1172.37 194.652C1168.13 191.967 1163.19 190.624 1157.53 190.624C1152.02 190.624 1147.07 191.967 1142.69 194.652C1138.45 197.196 1135.06 200.8 1132.52 205.464C1130.11 210.128 1128.91 215.499 1128.91 221.576C1128.91 227.654 1130.11 233.095 1132.52 237.9C1135.06 242.564 1138.45 246.168 1142.69 248.712C1147.07 251.256 1152.02 252.528 1157.53 252.528Z" fill="white"/>
<path d="M1017.2 277.544C1008.3 277.544 1000.95 276.131 995.153 273.304C989.358 270.336 985.048 266.45 982.221 261.644C979.536 256.698 978.193 251.256 978.193 245.32C978.193 238.819 979.818 233.095 983.069 228.148C986.461 223.202 991.478 219.315 998.121 216.488C1004.9 213.662 1013.38 212.248 1023.56 212.248H1050.06C1050.06 207.019 1049.35 202.708 1047.94 199.316C1046.53 195.783 1044.34 193.168 1041.37 191.472C1038.4 189.776 1034.44 188.928 1029.5 188.928C1024.13 188.928 1019.53 190.13 1015.72 192.532C1012.04 194.794 1009.78 198.327 1008.93 203.132H981.161C981.868 195.5 984.341 188.928 988.581 183.416C992.962 177.763 998.686 173.382 1005.75 170.272C1012.96 167.163 1020.95 165.608 1029.71 165.608C1039.74 165.608 1048.44 167.304 1055.78 170.696C1063.13 174.088 1068.79 178.964 1072.74 185.324C1076.7 191.684 1078.68 199.528 1078.68 208.856V275H1054.51L1051.33 258.676C1049.78 261.503 1047.94 264.047 1045.82 266.308C1043.7 268.57 1041.23 270.548 1038.4 272.244C1035.57 273.94 1032.39 275.212 1028.86 276.06C1025.33 277.05 1021.44 277.544 1017.2 277.544ZM1023.98 255.496C1027.66 255.496 1030.91 254.86 1033.74 253.588C1036.7 252.175 1039.25 250.338 1041.37 248.076C1043.49 245.674 1045.11 242.988 1046.24 240.02C1047.52 236.911 1048.36 233.59 1048.79 230.056V229.844H1026.95C1022.57 229.844 1018.97 230.41 1016.14 231.54C1013.46 232.53 1011.48 234.014 1010.2 235.992C1008.93 237.971 1008.3 240.232 1008.3 242.776C1008.3 245.603 1008.93 247.935 1010.2 249.772C1011.48 251.61 1013.31 253.023 1015.72 254.012C1018.12 255.002 1020.88 255.496 1023.98 255.496Z" fill="white"/>
<path d="M867.822 275V126.6H896.442V252.74H961.526V275H867.822Z" fill="white"/>
<path d="M676.517 275V126.6H726.125C743.368 126.6 757.572 129.709 768.737 135.928C780.044 142.005 788.382 150.626 793.753 161.792C799.265 172.816 802.021 185.818 802.021 200.8C802.021 215.781 799.265 228.854 793.753 240.02C788.382 251.044 780.114 259.665 768.949 265.884C757.784 271.961 743.509 275 726.125 275H676.517ZM705.137 250.408H724.641C736.796 250.408 746.336 248.429 753.261 244.472C760.328 240.514 765.345 234.861 768.313 227.512C771.281 220.021 772.765 211.117 772.765 200.8C772.765 190.341 771.281 181.437 768.313 174.088C765.345 166.597 760.328 160.873 753.261 156.916C746.336 152.958 736.796 150.98 724.641 150.98H705.137V250.408Z" fill="white"/>
<path d="M593.08 277.544C582.197 277.544 572.304 275.353 563.4 270.972C554.496 266.59 547.429 260.018 542.2 251.256C536.971 242.493 534.356 231.328 534.356 217.76V126.6H562.976V217.972C562.976 225.321 564.177 231.54 566.58 236.628C568.983 241.574 572.445 245.249 576.968 247.652C581.632 250.054 587.144 251.256 593.504 251.256C600.005 251.256 605.517 250.054 610.04 247.652C614.704 245.249 618.237 241.574 620.64 236.628C623.043 231.54 624.244 225.321 624.244 217.972V126.6H652.864V217.76C652.864 231.328 650.179 242.493 644.808 251.256C639.437 260.018 632.159 266.59 622.972 270.972C613.927 275.353 603.963 277.544 593.08 277.544Z" fill="white"/>
</svg>
