<svg width="1214" height="408" viewBox="409 0 1214 408" fill="none" xmlns="http://www.w3.org/2000/svg">
<path d="M1569.32 277.544C1558.58 277.544 1549.04 275.283 1540.7 270.76C1532.5 266.096 1526.07 259.665 1521.41 251.468C1516.89 243.129 1514.63 233.519 1514.63 222.636C1514.63 211.471 1516.89 201.648 1521.41 193.168C1526.07 184.547 1532.5 177.833 1540.7 173.028C1548.9 168.081 1558.44 165.608 1569.32 165.608C1579.92 165.608 1589.18 167.94 1597.09 172.604C1605.01 177.268 1611.16 183.557 1615.54 191.472C1619.92 199.387 1622.11 208.361 1622.11 218.396C1622.11 219.809 1622.11 221.435 1622.11 223.272C1622.11 224.968 1621.97 226.735 1621.69 228.572H1534.98V211.188H1593.28C1592.85 204.263 1590.38 198.821 1585.86 194.864C1581.48 190.907 1575.96 188.928 1569.32 188.928C1564.52 188.928 1560.06 190.059 1555.97 192.32C1551.87 194.44 1548.62 197.761 1546.21 202.284C1543.95 206.807 1542.82 212.531 1542.82 219.456V225.604C1542.82 231.399 1543.88 236.487 1546 240.868C1548.26 245.108 1551.37 248.429 1555.33 250.832C1559.29 253.093 1563.88 254.224 1569.11 254.224C1574.34 254.224 1578.65 253.093 1582.04 250.832C1585.58 248.571 1588.19 245.673 1589.89 242.14H1619.14C1617.16 248.783 1613.84 254.789 1609.18 260.16C1604.51 265.531 1598.79 269.771 1592.01 272.88C1585.22 275.989 1577.66 277.544 1569.32 277.544ZM1546.43 159.036L1543.88 140.168L1590.31 113.668L1593.7 135.504L1546.43 159.036Z" fill="white"/>
<path d="M1437.17 275V168.152H1462.61L1465.36 187.868C1467.91 183.204 1471.09 179.247 1474.9 175.996C1478.86 172.745 1483.31 170.201 1488.26 168.364C1493.35 166.527 1498.93 165.608 1505.01 165.608V195.924H1495.26C1491.02 195.924 1487.06 196.419 1483.38 197.408C1479.85 198.397 1476.74 200.023 1474.06 202.284C1471.37 204.404 1469.32 207.372 1467.91 211.188C1466.49 215.004 1465.79 219.809 1465.79 225.604V275H1437.17Z" fill="white"/>
<path d="M1302.49 321.64V168.152H1327.93L1331.11 182.992C1333.37 179.883 1336.06 177.056 1339.17 174.512C1342.28 171.827 1345.95 169.707 1350.19 168.152C1354.57 166.456 1359.66 165.608 1365.45 165.608C1375.49 165.608 1384.32 168.081 1391.95 173.028C1399.59 177.975 1405.59 184.688 1409.97 193.168C1414.5 201.507 1416.76 211.047 1416.76 221.788C1416.76 232.529 1414.5 242.14 1409.97 250.62C1405.45 258.959 1399.37 265.531 1391.74 270.336C1384.11 275.141 1375.42 277.544 1365.67 277.544C1357.75 277.544 1350.9 276.131 1345.1 273.304C1339.45 270.336 1334.78 266.308 1331.11 261.22V321.64H1302.49ZM1358.88 252.528C1364.54 252.528 1369.48 251.256 1373.72 248.712C1378.1 246.168 1381.5 242.564 1383.9 237.9C1386.3 233.236 1387.5 227.865 1387.5 221.788C1387.5 215.711 1386.3 210.34 1383.9 205.676C1381.5 200.871 1378.1 197.196 1373.72 194.652C1369.48 191.967 1364.54 190.624 1358.88 190.624C1353.37 190.624 1348.42 191.967 1344.04 194.652C1339.8 197.196 1336.41 200.8 1333.87 205.464C1331.46 210.128 1330.26 215.499 1330.26 221.576C1330.26 227.653 1331.46 233.095 1333.87 237.9C1336.41 242.564 1339.8 246.168 1344.04 248.712C1348.42 251.256 1353.37 252.528 1358.88 252.528Z" fill="white"/>
<path d="M1249.19 275V168.152H1277.81V275H1249.19ZM1263.61 153.524C1258.52 153.524 1254.28 152.04 1250.89 149.072C1247.64 145.962 1246.01 142.076 1246.01 137.412C1246.01 132.748 1247.64 128.932 1250.89 125.964C1254.28 122.854 1258.52 121.3 1263.61 121.3C1268.84 121.3 1273.08 122.854 1276.33 125.964C1279.72 128.932 1281.41 132.748 1281.41 137.412C1281.41 142.076 1279.72 145.962 1276.33 149.072C1273.08 152.04 1268.84 153.524 1263.61 153.524Z" fill="white"/>
<path d="M1103.54 275V126.6H1153.15C1170.39 126.6 1184.59 129.709 1195.76 135.928C1207.07 142.005 1215.4 150.626 1220.78 161.792C1226.29 172.816 1229.04 185.818 1229.04 200.8C1229.04 215.781 1226.29 228.854 1220.78 240.02C1215.4 251.044 1207.14 259.665 1195.97 265.884C1184.81 271.961 1170.53 275 1153.15 275H1103.54ZM1132.16 250.408H1151.66C1163.82 250.408 1173.36 248.429 1180.28 244.472C1187.35 240.514 1192.37 234.861 1195.34 227.512C1198.3 220.021 1199.79 211.117 1199.79 200.8C1199.79 190.341 1198.3 181.437 1195.34 174.088C1192.37 166.597 1187.35 160.873 1180.28 156.916C1173.36 152.958 1163.82 150.98 1151.66 150.98H1132.16V250.408Z" fill="white"/>
<path d="M930.645 275V168.152H955.873L957.993 185.536C961.244 179.6 965.837 174.795 971.773 171.12C977.851 167.445 985.059 165.608 993.397 165.608C1002.3 165.608 1009.79 167.445 1015.87 171.12C1021.95 174.795 1026.54 180.165 1029.65 187.232C1032.9 194.299 1034.53 202.991 1034.53 213.308V275H1006.12V216.064C1006.12 207.584 1004.28 201.083 1000.61 196.56C997.072 192.037 991.56 189.776 984.069 189.776C979.264 189.776 974.953 190.907 971.137 193.168C967.463 195.429 964.565 198.68 962.445 202.92C960.325 207.019 959.265 212.036 959.265 217.972V275H930.645Z" fill="white"/>
<path d="M846.707 277.544C837.803 277.544 830.453 276.131 824.659 273.304C818.864 270.336 814.553 266.449 811.727 261.644C809.041 256.697 807.698 251.256 807.698 245.32C807.698 238.819 809.324 233.095 812.574 228.148C815.966 223.201 820.984 219.315 827.626 216.488C834.41 213.661 842.89 212.248 853.066 212.248H879.566C879.566 207.019 878.86 202.708 877.447 199.316C876.033 195.783 873.843 193.168 870.875 191.472C867.907 189.776 863.949 188.928 859.003 188.928C853.632 188.928 849.039 190.129 845.223 192.532C841.548 194.793 839.287 198.327 838.439 203.132H810.667C811.373 195.5 813.846 188.928 818.086 183.416C822.468 177.763 828.192 173.381 835.259 170.272C842.467 167.163 850.452 165.608 859.215 165.608C869.249 165.608 877.941 167.304 885.29 170.696C892.64 174.088 898.293 178.964 902.251 185.324C906.208 191.684 908.186 199.528 908.186 208.856V275H884.018L880.839 258.676C879.284 261.503 877.447 264.047 875.327 266.308C873.207 268.569 870.733 270.548 867.906 272.244C865.08 273.94 861.9 275.212 858.367 276.06C854.833 277.049 850.947 277.544 846.707 277.544ZM853.491 255.496C857.165 255.496 860.416 254.86 863.242 253.588C866.21 252.175 868.755 250.337 870.875 248.076C872.995 245.673 874.62 242.988 875.751 240.02C877.023 236.911 877.87 233.589 878.294 230.056V229.844H856.458C852.077 229.844 848.473 230.409 845.647 231.54C842.961 232.529 840.983 234.013 839.711 235.992C838.439 237.971 837.802 240.232 837.802 242.776C837.802 245.603 838.439 247.935 839.711 249.772C840.983 251.609 842.82 253.023 845.223 254.012C847.625 255.001 850.381 255.496 853.491 255.496Z" fill="white"/>
<path d="M758.387 275V122.36H787.007V275H758.387Z" fill="white"/>
<path d="M675.881 275V168.152H701.321L704.077 187.868C706.621 183.204 709.801 179.247 713.617 175.996C717.574 172.745 722.026 170.201 726.973 168.364C732.061 166.527 737.644 165.608 743.721 165.608V195.924H733.969C729.729 195.924 725.772 196.419 722.097 197.408C718.564 198.397 715.454 200.023 712.769 202.284C710.084 204.404 708.034 207.372 706.621 211.188C705.208 215.004 704.501 219.809 704.501 225.604V275H675.881Z" fill="white"/>
<path d="M593.08 277.544C582.197 277.544 572.304 275.353 563.4 270.972C554.496 266.59 547.429 260.018 542.2 251.256C536.971 242.493 534.356 231.328 534.356 217.76V126.6H562.976V217.972C562.976 225.321 564.177 231.54 566.58 236.628C568.983 241.574 572.445 245.249 576.968 247.652C581.632 250.054 587.144 251.256 593.504 251.256C600.005 251.256 605.517 250.054 610.04 247.652C614.704 245.249 618.237 241.574 620.64 236.628C623.043 231.54 624.244 225.321 624.244 217.972V126.6H652.864V217.76C652.864 231.328 650.179 242.493 644.808 251.256C639.437 260.018 632.159 266.59 622.972 270.972C613.927 275.353 603.963 277.544 593.08 277.544Z" fill="white"/>
</svg>
